<svg width="71" height="101" viewBox="0 0 71 101" fill="none" xmlns="http://www.w3.org/2000/svg">
<path d="M6.89411 11.7262L1.38805 7.16797H69.5411L64.3409 11.7262H6.89411Z" fill="#2B3452" stroke="#A78F63"/>
<rect x="0.5" y="0.5" width="69.87" height="5.66985" fill="#2B3452" stroke="#A78F63"/>
<rect x="0.5" y="86.0977" width="69.87" height="5.66985" fill="#2B3452" stroke="#A78F63"/>
<rect x="7.21289" y="12.1719" width="57.188" height="73.48" fill="#2B3452" stroke="#A78F63"/>
<rect x="13.1816" y="95.5469" width="45.252" height="4.00239" fill="#2B3452" stroke="#A78F63"/>
<mask id="path-6-inside-1_199_6216" fill="white">
<path d="M12.6816 12.7852H58.4421V26.1249H12.6816V12.7852Z"/>
</mask>
<path d="M12.6816 12.7852H58.4421V26.1249H12.6816V12.7852Z" fill="#2B3452"/>
<path d="M12.6816 12.7852V11.7852H11.6816V12.7852H12.6816ZM58.4421 12.7852H59.4421V11.7852H58.4421V12.7852ZM12.6816 13.7852H58.4421V11.7852H12.6816V13.7852ZM57.4421 12.7852V26.1249H59.4421V12.7852H57.4421ZM13.6816 26.1249V12.7852H11.6816V26.1249H13.6816Z" fill="#A78F63" mask="url(#path-6-inside-1_199_6216)"/>
<rect x="23.2715" y="15.8438" width="22.6183" height="8.44896" fill="#2B3452" stroke="#A78F63"/>
<rect x="26.2246" y="18.0664" width="15.9757" height="4.00239" fill="#2B3452" stroke="#A78F63"/>
<rect x="13.1816" y="26.625" width="44.7605" height="57.917" fill="#FADEC9" stroke="#A78F63"/>
</svg>
